<svg width="16" height="16" viewBox="0 0 16 16" fill="none" xmlns="http://www.w3.org/2000/svg">
<g id="return 1">
<g id="Group">
<g id="Group_2">
<path id="Vector" d="M2.13942 6.65934L2.18642 6.7181L2.20108 6.64429C2.83349 3.45987 5.64751 1.05063 9.01569 1.05063C12.8474 1.05063 15.965 4.16824 15.965 7.99995C15.965 11.82 12.8664 14.9303 9.05069 14.9492V13.9447C12.3125 13.9258 14.9605 11.2661 14.9605 7.99995C14.9605 4.72214 12.2935 2.05513 9.01569 2.05513C6.04854 2.05513 3.5902 4.24178 3.14813 7.0866L3.13772 7.1536L3.19837 7.12328L5.53582 5.9548L5.98535 6.85336L2.79323 8.44944C2.72133 8.48511 2.64448 8.5022 2.56862 8.5022C2.41994 8.5022 2.27427 8.4359 2.17633 8.31382L0.0491914 5.6549L0.833724 5.02708L2.13942 6.65934Z" fill="black" stroke="white" stroke-width="0.07"/>
</g>
</g>
</g>
</svg>
