<svg width="8" height="5" viewBox="0 0 8 5" fill="none" xmlns="http://www.w3.org/2000/svg">
<path d="M0.768491 4.60581C0.730943 4.63926 0.679832 4.65808 0.626512 4.65808C0.573193 4.65808 0.522081 4.63926 0.484534 4.60581L0.0605983 4.23118C0.0219332 4.19912 6.00701e-09 4.15434 6.5658e-09 4.10748C7.12458e-09 4.06063 0.0219332 4.01585 0.0605983 3.98379L3.73604 0.735834C3.79224 0.68611 3.86848 0.658143 3.94801 0.658081L4.05199 0.658081C4.13152 0.658143 4.20776 0.68611 4.26396 0.735834L7.9394 3.98379C7.97807 4.01585 8 4.06063 8 4.10748C8 4.15434 7.97807 4.19912 7.9394 4.23118L7.51547 4.60581C7.47792 4.63926 7.42681 4.65808 7.37349 4.65808C7.32017 4.65808 7.26906 4.63926 7.23151 4.60581L4 1.75016L0.768491 4.60581Z" fill="black"/>
</svg>
