<svg width="5" height="3" viewBox="0 0 5 3" fill="none" xmlns="http://www.w3.org/2000/svg">
<path id="Icon color" d="M4.51969 0.0369692C4.54316 0.0133087 4.57511 -1.85727e-08 4.60843 -1.71161e-08C4.64175 -1.56594e-08 4.6737 0.0133087 4.69717 0.0369692L4.96213 0.301929C4.98629 0.324609 5 0.356274 5 0.389416C5 0.422557 4.98629 0.454222 4.96213 0.476902L2.66497 2.77405C2.62985 2.80922 2.5822 2.829 2.53249 2.82904L2.4675 2.82904C2.4178 2.829 2.37015 2.80922 2.33502 2.77405L0.0378737 0.476902C0.0137081 0.454222 -1.84706e-08 0.422557 -1.70219e-08 0.389415C-1.55732e-08 0.356274 0.0137081 0.324609 0.0378737 0.301929L0.302834 0.036969C0.326301 0.0133085 0.358245 -2.02898e-07 0.39157 -2.01441e-07C0.424895 -1.99984e-07 0.45684 0.0133085 0.480307 0.036969L2.5 2.05666L4.51969 0.0369692Z" fill="#707070"/>
</svg>
