<svg width="16" height="16" viewBox="0 0 16 16" fill="none" xmlns="http://www.w3.org/2000/svg">
<g id="accepted 1">
<g id="Accept">
<path id="Vector" d="M10.2015 0.29847L10.1768 0.323155L10.2015 0.29847C10.1751 0.272005 10.1436 0.251013 10.1091 0.236691C10.0745 0.222369 10.0374 0.214999 10 0.215H1.5C1.42441 0.215 1.35192 0.245027 1.29847 0.298475C1.24503 0.351922 1.215 0.424413 1.215 0.5V15.5C1.215 15.5756 1.24503 15.6481 1.29847 15.7015C1.35192 15.755 1.42441 15.785 1.5 15.785H12C12.0756 15.785 12.1481 15.755 12.2015 15.7015C12.255 15.6481 12.285 15.5756 12.285 15.5V15.0215C13.031 14.9502 13.7248 14.6058 14.2326 14.0537C14.7477 13.4937 15.0341 12.7609 15.035 12V12C15.0341 11.2391 14.7477 10.5063 14.2326 9.9463C13.7248 9.39422 13.031 9.04976 12.285 8.97851V2.5C12.285 2.46257 12.2776 2.42551 12.2633 2.39093C12.249 2.35636 12.228 2.32494 12.2015 2.29847L10.2015 0.29847ZM10.285 2.215V1.18803L11.312 2.215H10.285ZM1.785 15.215V0.785H9.715V2.5C9.715 2.57559 9.74503 2.64808 9.79847 2.70153C9.85192 2.75497 9.92441 2.785 10 2.785H11.715V8.97848C10.9688 9.04905 10.2747 9.39333 9.76681 9.94559C9.25168 10.5057 8.96578 11.239 8.96578 12C8.96578 12.761 9.25168 13.4943 9.76681 14.0544C10.2747 14.6067 10.9688 14.9509 11.715 15.0215V15.215H1.785ZM12 14.465C11.5124 14.465 11.0359 14.3204 10.6305 14.0496C10.2252 13.7787 9.90921 13.3937 9.72264 12.9433C9.53607 12.4929 9.48725 11.9973 9.58236 11.5191C9.67748 11.0409 9.91225 10.6017 10.257 10.257C10.6017 9.91225 11.0409 9.67748 11.5191 9.58236C11.9973 9.48725 12.4929 9.53607 12.9433 9.72264C13.3937 9.90921 13.7787 10.2252 14.0496 10.6305C14.3204 11.0359 14.465 11.5124 14.465 12C14.4643 12.6535 14.2043 13.2801 13.7422 13.7422C13.2801 14.2043 12.6535 14.4643 12 14.465Z" fill="white" stroke="white" stroke-width="0.07"/>
<path id="Vector_2" d="M12.2015 13.2016L12.2015 13.2016C12.1566 13.2466 12.0979 13.2752 12.0348 13.2829C11.9717 13.2907 11.9078 13.2771 11.8534 13.2444L10.6034 12.4944C10.5713 12.4751 10.5433 12.4498 10.521 12.4197C10.4987 12.3896 10.4826 12.3554 10.4735 12.3191C10.4644 12.2828 10.4626 12.2451 10.4681 12.2081C10.4736 12.171 10.4864 12.1355 10.5056 12.1034C10.5249 12.0713 10.5503 12.0433 10.5803 12.021C10.6104 11.9987 10.6446 11.9826 10.6809 11.9735C10.7172 11.9644 10.7549 11.9626 10.7919 11.9681C10.829 11.9736 10.8645 11.9864 10.8966 12.0056L11.9558 12.6411L13.5485 11.0485C13.5749 11.022 13.6064 11.001 13.6409 10.9867C13.6755 10.9724 13.7126 10.965 13.75 10.965C13.7874 10.965 13.8245 10.9724 13.8591 10.9867L12.2015 13.2016ZM12.2015 13.2016L13.9515 11.4516C13.978 11.4252 13.999 11.3937 14.0133 11.3592C14.0277 11.3246 14.0351 11.2875 14.0351 11.2501C14.0351 11.2126 14.0277 11.1755 14.0133 11.141C13.999 11.1064 13.978 11.0749 13.9515 11.0485L12.2015 13.2016Z" fill="white" stroke="white" stroke-width="0.07"/>
</g>
</g>
</svg>
