<svg width="8" height="5" viewBox="0 0 8 5" fill="none" xmlns="http://www.w3.org/2000/svg">
<path d="M0.768491 4.60593C0.730943 4.63939 0.679832 4.6582 0.626512 4.6582C0.573193 4.6582 0.522081 4.63939 0.484534 4.60593L0.0605983 4.2313C0.0219332 4.19924 6.00701e-09 4.15447 6.5658e-09 4.10761C7.12458e-09 4.06075 0.0219332 4.01598 0.0605983 3.98391L3.73604 0.735956C3.79224 0.686232 3.86848 0.658265 3.94801 0.658203L4.05199 0.658203C4.13152 0.658265 4.20776 0.686232 4.26396 0.735956L7.9394 3.98391C7.97807 4.01598 8 4.06075 8 4.10761C8 4.15447 7.97807 4.19924 7.9394 4.2313L7.51547 4.60593C7.47792 4.63939 7.42681 4.6582 7.37349 4.6582C7.32017 4.6582 7.26906 4.63939 7.23151 4.60593L4 1.75028L0.768491 4.60593Z" fill="#FBFBFB"/>
</svg>
