<svg width="16" height="16" viewBox="0 0 16 16" fill="none" xmlns="http://www.w3.org/2000/svg">
<g id="delivery-box" clip-path="url(#clip0_378_17)">
<path id="Vector" d="M7.99466 16.0001C7.942 16.0001 7.88866 15.9874 7.84066 15.9621L0.179333 11.9621C0.0693333 11.9047 0 11.7907 0 11.6667V4.16674C0 4.05141 0.06 3.94407 0.158 3.88341C0.256 3.82274 0.379333 3.81741 0.482 3.86874L8.14333 7.70208C8.256 7.75874 8.32733 7.87408 8.32733 8.00008V15.6668C8.32733 15.7834 8.26666 15.8914 8.16667 15.9521C8.11467 15.9841 8.05466 16.0001 7.99466 16.0001ZM0.666667 11.4647L7.66133 15.1167V8.20608L0.666667 4.70608V11.4647Z" fill="white"/>
<path id="Vector_2" d="M8.00521 16.0001C7.94521 16.0001 7.88521 15.9841 7.83254 15.9521C7.73321 15.8914 7.67188 15.7834 7.67188 15.6668V8.00008C7.67188 7.87408 7.74321 7.75875 7.85588 7.70209L15.5172 3.86875C15.6192 3.81675 15.7432 3.82208 15.8412 3.88342C15.9399 3.94408 15.9999 4.05142 15.9999 4.16675V11.6668C15.9999 11.7908 15.9305 11.9048 15.8205 11.9621L8.15921 15.9621C8.11121 15.9874 8.05788 16.0001 8.00521 16.0001ZM8.33854 8.20609V15.1168L15.3332 11.4648V4.70608L8.33854 8.20609ZM15.6665 11.6668H15.6732H15.6665Z" fill="white"/>
<path id="Vector_3" d="M0.33305 4.50015C0.210383 4.50015 0.0930497 4.43282 0.034383 4.31615C-0.0482837 4.15149 0.0190496 3.95149 0.183716 3.86882L7.85572 0.0354883C7.94972 -0.0111784 8.06038 -0.0111784 8.15372 0.0354883L15.8151 3.86882C15.9797 3.95149 16.0464 4.15149 15.9644 4.31615C15.8817 4.48082 15.6824 4.54682 15.5171 4.46549L8.00505 0.706155L0.482383 4.46482C0.434383 4.48882 0.383716 4.50015 0.33305 4.50015Z" fill="white"/>
<path id="Vector_4" d="M12 10C11.816 10 11.6666 9.85069 11.6666 9.66669V6.20603L4.18929 2.46469C4.02462 2.38269 3.95796 2.18203 4.04062 2.01736C4.12329 1.85269 4.32329 1.78669 4.48796 1.86803L12.1493 5.70136C12.262 5.75869 12.3333 5.87403 12.3333 6.00003V9.66669C12.3333 9.85069 12.184 10 12 10Z" fill="white
"/>
</g>
<defs>
<clipPath id="clip0_378_17">
<rect width="16" height="16" fill="white"/>
</clipPath>
</defs>
</svg>
