<svg width="20" height="20" viewBox="0 0 20 20" fill="none" xmlns="http://www.w3.org/2000/svg">
<path fill-rule="evenodd" clip-rule="evenodd" d="M3 17H8.5C8.77614 17 9 17.2239 9 17.5V18.5C9 18.7761 8.77614 19 8.5 19H3C1.89543 19 1 18.1046 1 17V3C1 1.89543 1.89543 1 3 1H8.5C8.77614 1 9 1.22386 9 1.5V2.5C9 2.77614 8.77614 3 8.5 3H3V17ZM13.64 4.15L18.78 9.28C18.9189 9.42172 18.9977 9.61159 19 9.81V10.19C18.9998 10.3888 18.9207 10.5795 18.78 10.72L13.64 15.85C13.5461 15.9447 13.4183 15.9979 13.285 15.9979C13.1517 15.9979 13.0239 15.9447 12.93 15.85L12.22 15.15C12.1253 15.0561 12.0721 14.9283 12.0721 14.795C12.0721 14.6617 12.1253 14.5339 12.22 14.44L15.67 11H5.5C5.22386 11 5 10.7761 5 10.5V9.5C5 9.22386 5.22386 9 5.5 9H15.67L12.22 5.56C12.1259 5.46784 12.0729 5.34169 12.0729 5.21C12.0729 5.07831 12.1259 4.95216 12.22 4.86L12.93 4.15C13.0239 4.05534 13.1517 4.0021 13.285 4.0021C13.4183 4.0021 13.5461 4.05534 13.64 4.15Z" fill="white"/>
<path d="M3 17H2.5V17.5H3V17ZM3 3V2.5H2.5V3H3ZM18.78 9.28L19.1371 8.93001L19.1332 8.9261L18.78 9.28ZM13.64 4.15L13.285 4.50211L13.2868 4.5039L13.64 4.15ZM19 9.81H19.5L19.5 9.80419L19 9.81ZM19 10.19L19.5 10.1904V10.19H19ZM18.78 10.72L19.1332 11.0739L19.1333 11.0738L18.78 10.72ZM13.64 15.85L13.2868 15.4961L13.285 15.4979L13.64 15.85ZM12.93 15.85L13.285 15.4979L13.281 15.4939L12.93 15.85ZM12.22 15.15L11.8679 15.505L11.869 15.5061L12.22 15.15ZM12.22 14.44L12.5721 14.795L12.573 14.7941L12.22 14.44ZM15.67 11L16.023 11.3541L16.8796 10.5H15.67V11ZM15.67 9V9.5H16.8796L16.023 8.64593L15.67 9ZM12.22 5.56L12.5731 5.20592L12.5699 5.20286L12.22 5.56ZM12.22 4.86L12.5699 5.21716L12.5736 5.21355L12.22 4.86ZM12.93 4.15L13.2836 4.50356L13.285 4.5021L12.93 4.15ZM8.5 16.5H3V17.5H8.5V16.5ZM9.5 17.5C9.5 16.9477 9.05229 16.5 8.5 16.5V17.5H9.5ZM9.5 18.5V17.5H8.5V18.5H9.5ZM8.5 19.5C9.05229 19.5 9.5 19.0523 9.5 18.5H8.5V19.5ZM3 19.5H8.5V18.5H3V19.5ZM0.5 17C0.5 18.3807 1.61929 19.5 3 19.5V18.5C2.17157 18.5 1.5 17.8284 1.5 17H0.5ZM0.5 3V17H1.5V3H0.5ZM3 0.5C1.61929 0.5 0.5 1.61929 0.5 3H1.5C1.5 2.17157 2.17157 1.5 3 1.5V0.5ZM8.5 0.5H3V1.5H8.5V0.5ZM9.5 1.5C9.5 0.947715 9.05229 0.5 8.5 0.5V1.5H9.5ZM9.5 2.5V1.5H8.5V2.5H9.5ZM8.5 3.5C9.05229 3.5 9.5 3.05228 9.5 2.5H8.5V3.5ZM3 3.5H8.5V2.5H3V3.5ZM3.5 17V3H2.5V17H3.5ZM19.1332 8.9261L13.9932 3.7961L13.2868 4.5039L18.4268 9.6339L19.1332 8.9261ZM19.5 9.80419C19.4962 9.47694 19.3662 9.16378 19.1371 8.93004L18.4229 9.62996C18.4716 9.67966 18.4992 9.74623 18.5 9.81581L19.5 9.80419ZM19.5 10.19V9.81H18.5V10.19H19.5ZM19.1333 11.0738C19.3678 10.8396 19.4997 10.5218 19.5 10.1904L18.5 10.1896C18.4999 10.2558 18.4736 10.3194 18.4267 10.3662L19.1333 11.0738ZM13.9932 16.2039L19.1332 11.0739L18.4268 10.3661L13.2868 15.4961L13.9932 16.2039ZM13.285 16.4979C13.5516 16.4979 13.8072 16.3914 13.995 16.2021L13.285 15.4979L13.285 15.4979V16.4979ZM12.575 16.2021C12.7628 16.3914 13.0184 16.4979 13.285 16.4979V15.4979L13.285 15.4979L12.575 16.2021ZM11.869 15.5061L12.579 16.2061L13.281 15.4939L12.571 14.7939L11.869 15.5061ZM11.5721 14.795C11.5721 15.0616 11.6786 15.3172 11.8679 15.505L12.5721 14.795L12.5721 14.795H11.5721ZM11.8679 14.085C11.6786 14.2728 11.5721 14.5284 11.5721 14.795H12.5721L12.5721 14.795L11.8679 14.085ZM15.317 10.6459L11.867 14.0859L12.573 14.7941L16.023 11.3541L15.317 10.6459ZM5.5 11.5H15.67V10.5H5.5V11.5ZM4.5 10.5C4.5 11.0523 4.94771 11.5 5.5 11.5V10.5H4.5ZM4.5 9.5V10.5H5.5V9.5H4.5ZM5.5 8.5C4.94771 8.5 4.5 8.94772 4.5 9.5H5.5V8.5ZM15.67 8.5H5.5V9.5H15.67V8.5ZM11.867 5.91407L15.317 9.35407L16.023 8.64593L12.573 5.20593L11.867 5.91407ZM11.5729 5.21C11.5729 5.47607 11.68 5.73093 11.8701 5.91714L12.5699 5.20286C12.5718 5.20474 12.5729 5.20731 12.5729 5.21H11.5729ZM11.8701 4.50286C11.68 4.68907 11.5729 4.94393 11.5729 5.21H12.5729C12.5729 5.21269 12.5718 5.21526 12.5699 5.21714L11.8701 4.50286ZM12.5764 3.79645L11.8664 4.50645L12.5736 5.21355L13.2836 4.50355L12.5764 3.79645ZM13.285 3.5021C13.0184 3.5021 12.7628 3.60859 12.575 3.7979L13.285 4.5021L13.285 4.5021V3.5021ZM13.995 3.7979C13.8072 3.60859 13.5516 3.5021 13.285 3.5021V4.5021L13.285 4.5021L13.995 3.7979Z" fill="none"/>
</svg>
