<?xml version="1.0" encoding="utf-8"?>
<!-- Generator: Adobe Illustrator 16.0.0, SVG Export Plug-In . SVG Version: 6.00 Build 0)  -->
<!DOCTYPE svg PUBLIC "-//W3C//DTD SVG 1.1//EN" "http://www.w3.org/Graphics/SVG/1.1/DTD/svg11.dtd">
<svg version="1.1" id="Layer_1" xmlns="http://www.w3.org/2000/svg" xmlns:xlink="http://www.w3.org/1999/xlink" x="0px" y="0px"
	 width="100px" height="100px" viewBox="0 0 100 100" enable-background="new 0 0 100 100" xml:space="preserve">
<g>
	<path d="M51.572,66.112c-8.402,0-15.238-6.837-15.238-15.239c0-7.884,5.91-14.403,13.75-15.164
		c0.502-0.052,0.977,0.228,1.184,0.684c0.207,0.458,0.102,0.996-0.264,1.343c-1.912,1.799-2.963,4.227-2.963,6.835
		c0,5.181,4.215,9.397,9.396,9.397c2.826,0,5.475-1.257,7.27-3.446c0.32-0.388,0.852-0.527,1.32-0.353
		c0.471,0.174,0.777,0.628,0.764,1.131C66.561,59.605,59.875,66.112,51.572,66.112z"/>
</g>
</svg>
