<svg width="24" height="18" viewBox="0 0 18 18" fill="none" xmlns="http://www.w3.org/2000/svg">
<g clip-path="url(#clip0_2312_6270)">
<path d="M17.0849 6.74529L17.0851 6.7453C17.2663 6.7617 17.4204 6.88422 17.4773 7.05863C17.5343 7.23437 17.4816 7.42476 17.344 7.54544L13.4164 10.9895L13.1925 11.1858L13.2584 11.4761L14.4164 16.5764C14.4573 16.7572 14.3871 16.9418 14.2392 17.0488L14.2387 17.0491C14.0903 17.1567 13.8933 17.1652 13.7362 17.0713L9.25659 14.3924L8.99999 14.2389L8.74337 14.3923L4.26279 17.0714L4.26265 17.0715C4.19018 17.1149 4.10955 17.1362 4.02884 17.1362C3.93452 17.1362 3.84143 17.1074 3.76175 17.0495L3.76076 17.0488C3.61283 16.9418 3.54269 16.7574 3.58348 16.5765C3.5835 16.5765 3.58351 16.5764 3.58352 16.5764L4.74152 11.4761L4.80744 11.1858L4.58357 10.9895L0.655795 7.54536C0.655783 7.54535 0.655771 7.54534 0.65576 7.54533C0.518421 7.42485 0.465814 7.23413 0.522376 7.05948C0.579856 6.88478 0.734016 6.76216 0.915326 6.74526C0.915468 6.74525 0.915611 6.74523 0.915754 6.74522L6.1119 6.27356L6.40924 6.24657L6.52651 5.972L8.58003 1.16431L8.58013 1.16407C8.65218 0.995135 8.8163 0.886719 8.99996 0.886719C9.18317 0.886719 9.34774 0.994781 9.42088 1.16467C9.42094 1.16482 9.42101 1.16497 9.42107 1.16512L11.4742 5.972L11.5915 6.24656L11.8888 6.27355L17.0849 6.74529Z" stroke="#FBFBFB"/>
</g>
<defs>
<clipPath id="clip0_2312_6270">
<rect width="18" height="18" fill="white"/>
</clipPath>
</defs>
</svg>
