<svg width="130" height="18" viewBox="0 0 130 18" fill="none" xmlns="http://www.w3.org/2000/svg">
<g clip-path="url(#clip0_2312_6248)">
<path d="M17.9529 6.90433C17.8344 6.53985 17.5111 6.28181 17.1301 6.24734L11.934 5.7756L9.88053 0.967905C9.72892 0.614689 9.38394 0.386719 8.99996 0.386719C8.61598 0.386719 8.27087 0.614689 8.12022 0.967905L6.0667 5.7756L0.869807 6.24734C0.48885 6.28249 0.166258 6.54054 0.0470545 6.90433C-0.0714625 7.26881 0.0379906 7.66858 0.326112 7.92127L4.25393 11.3654L3.09581 16.4662C3.01108 16.8412 3.15665 17.229 3.46784 17.454C3.63511 17.5755 3.83163 17.6362 4.02884 17.6362C4.19831 17.6362 4.36791 17.5912 4.51939 17.5005L8.99996 14.8215L13.4797 17.5005C13.8083 17.6969 14.2216 17.6789 14.5321 17.454C14.8433 17.229 14.9888 16.8412 14.9041 16.4662L13.746 11.3654L17.6738 7.92127C17.9618 7.66858 18.0714 7.26963 17.9529 6.90433Z" fill="#FBFBFB"/>
</g>
<g clip-path="url(#clip1_2312_6248)">
<path d="M73.9529 6.90433C73.8344 6.53985 73.5111 6.28181 73.1301 6.24734L67.934 5.7756L65.8805 0.967905C65.7289 0.614689 65.3839 0.386719 65 0.386719C64.616 0.386719 64.2709 0.614689 64.1202 0.967905L62.0667 5.7756L56.8698 6.24734C56.4888 6.28249 56.1663 6.54054 56.0471 6.90433C55.9285 7.26881 56.038 7.66858 56.3261 7.92127L60.2539 11.3654L59.0958 16.4662C59.0111 16.8412 59.1566 17.229 59.4678 17.454C59.6351 17.5755 59.8316 17.6362 60.0288 17.6362C60.1983 17.6362 60.3679 17.5912 60.5194 17.5005L65 14.8215L69.4797 17.5005C69.8083 17.6969 70.2216 17.6789 70.5321 17.454C70.8433 17.229 70.9888 16.8412 70.9041 16.4662L69.746 11.3654L73.6738 7.92127C73.9618 7.66858 74.0714 7.26963 73.9529 6.90433Z" fill="#FBFBFB"/>
</g>
<g clip-path="url(#clip2_2312_6248)">
<path d="M45.9529 6.90433C45.8344 6.53985 45.5111 6.28181 45.1301 6.24734L39.934 5.7756L37.8805 0.967905C37.7289 0.614689 37.3839 0.386719 37 0.386719C36.616 0.386719 36.2709 0.614689 36.1202 0.967905L34.0667 5.7756L28.8698 6.24734C28.4888 6.28249 28.1663 6.54054 28.0471 6.90433C27.9285 7.26881 28.038 7.66858 28.3261 7.92127L32.2539 11.3654L31.0958 16.4662C31.0111 16.8412 31.1566 17.229 31.4678 17.454C31.6351 17.5755 31.8316 17.6362 32.0288 17.6362C32.1983 17.6362 32.3679 17.5912 32.5194 17.5005L37 14.8215L41.4797 17.5005C41.8083 17.6969 42.2216 17.6789 42.5321 17.454C42.8433 17.229 42.9888 16.8412 42.9041 16.4662L41.746 11.3654L45.6738 7.92127C45.9618 7.66858 46.0714 7.26963 45.9529 6.90433Z" fill="#FBFBFB"/>
</g>
<g clip-path="url(#clip3_2312_6248)">
<path d="M101.085 6.74529L101.085 6.7453C101.266 6.7617 101.42 6.88422 101.477 7.05863C101.534 7.23437 101.482 7.42476 101.344 7.54544L97.4164 10.9895L97.1925 11.1858L97.2584 11.4761L98.4164 16.5764C98.4573 16.7572 98.3871 16.9418 98.2392 17.0488L98.2387 17.0491C98.0903 17.1567 97.8933 17.1652 97.7362 17.0713L93.2566 14.3924L93 14.2389L92.7434 14.3923L88.2628 17.0714L88.2627 17.0715C88.1902 17.1149 88.1096 17.1362 88.0288 17.1362C87.9345 17.1362 87.8414 17.1074 87.7618 17.0495L87.7608 17.0488C87.6128 16.9418 87.5427 16.7574 87.5835 16.5765C87.5835 16.5765 87.5835 16.5764 87.5835 16.5764L88.7415 11.4761L88.8074 11.1858L88.5836 10.9895L84.6558 7.54536C84.6558 7.54535 84.6558 7.54534 84.6558 7.54533C84.5184 7.42485 84.4658 7.23413 84.5224 7.05948C84.5799 6.88478 84.734 6.76216 84.9153 6.74526C84.9155 6.74525 84.9156 6.74523 84.9158 6.74522L90.1119 6.27356L90.4092 6.24657L90.5265 5.972L92.58 1.16431L92.5801 1.16407C92.6522 0.995135 92.8163 0.886719 93 0.886719C93.1832 0.886719 93.3477 0.994781 93.4209 1.16467C93.4209 1.16482 93.421 1.16497 93.4211 1.16512L95.4742 5.972L95.5915 6.24656L95.8888 6.27355L101.085 6.74529Z" fill="#FBFBFB"/>
</g>
<g clip-path="url(#clip4_2312_6248)">
<path d="M129.085 6.74529L129.085 6.7453C129.266 6.7617 129.42 6.88422 129.477 7.05863C129.534 7.23437 129.482 7.42476 129.344 7.54544L125.416 10.9895L125.192 11.1858L125.258 11.4761L126.416 16.5764C126.457 16.7572 126.387 16.9418 126.239 17.0488L126.239 17.0491C126.09 17.1567 125.893 17.1652 125.736 17.0713L121.257 14.3924L121 14.2389L120.743 14.3923L116.263 17.0714L116.263 17.0715C116.19 17.1149 116.11 17.1362 116.029 17.1362C115.935 17.1362 115.841 17.1074 115.762 17.0495L115.761 17.0488C115.613 16.9418 115.543 16.7574 115.583 16.5765C115.583 16.5765 115.584 16.5764 115.584 16.5764L116.742 11.4761L116.807 11.1858L116.584 10.9895L112.656 7.54536C112.656 7.54535 112.656 7.54534 112.656 7.54533C112.518 7.42485 112.466 7.23413 112.522 7.05948C112.58 6.88478 112.734 6.76216 112.915 6.74526C112.915 6.74525 112.916 6.74523 112.916 6.74522L118.112 6.27356L118.409 6.24657L118.527 5.972L120.58 1.16431L120.58 1.16407C120.652 0.995135 120.816 0.886719 121 0.886719C121.183 0.886719 121.348 0.994781 121.421 1.16467C121.421 1.16482 121.421 1.16497 121.421 1.16512L123.474 5.972L123.592 6.24656L123.889 6.27355L129.085 6.74529Z" stroke="#FBFBFB"/>
</g>
<defs>
<clipPath id="clip0_2312_6248">
<rect width="18" height="18" fill="white"/>
</clipPath>
<clipPath id="clip1_2312_6248">
<rect width="18" height="18" fill="white" transform="translate(56)"/>
</clipPath>
<clipPath id="clip2_2312_6248">
<rect width="18" height="18" fill="white" transform="translate(28)"/>
</clipPath>
<clipPath id="clip3_2312_6248">
<rect width="18" height="18" fill="white" transform="translate(84)"/>
</clipPath>
<clipPath id="clip4_2312_6248">
<rect width="18" height="18" fill="white" transform="translate(112)"/>
</clipPath>
</defs>
</svg>
