<svg width="18" height="18" viewBox="0 0 18 18" fill="none" xmlns="http://www.w3.org/2000/svg">
<g clip-path="url(#clip0_2312_6264)">
<path d="M17.9529 6.90433C17.8344 6.53985 17.5111 6.28181 17.1301 6.24734L11.934 5.7756L9.88053 0.967905C9.72892 0.614689 9.38394 0.386719 8.99996 0.386719C8.61598 0.386719 8.27087 0.614689 8.12022 0.967905L6.0667 5.7756L0.869807 6.24734C0.48885 6.28249 0.166258 6.54054 0.0470545 6.90433C-0.0714625 7.26881 0.0379906 7.66858 0.326112 7.92127L4.25393 11.3654L3.09581 16.4662C3.01108 16.8412 3.15665 17.229 3.46784 17.454C3.63511 17.5755 3.83163 17.6362 4.02884 17.6362C4.19831 17.6362 4.36791 17.5912 4.51939 17.5005L8.99996 14.8215L13.4797 17.5005C13.8083 17.6969 14.2216 17.6789 14.5321 17.454C14.8433 17.229 14.9888 16.8412 14.9041 16.4662L13.746 11.3654L17.6738 7.92127C17.9618 7.66858 18.0714 7.26963 17.9529 6.90433Z" fill="#FBFBFB"/>
</g>
<defs>
<clipPath id="clip0_2312_6264">
<rect width="18" height="18" fill="white"/>
</clipPath>
</defs>
</svg>
