<svg width="18" height="18" viewBox="0 0 18 18" fill="none" xmlns="http://www.w3.org/2000/svg">
<path fill-rule="evenodd" clip-rule="evenodd" d="M0 9C0 4.02943 4.02944 0 9 0C11.3869 0 13.6761 0.948212 15.364 2.63604C17.0518 4.32387 18 6.61305 18 9C18 13.9706 13.9706 18 9 18C4.02944 18 0 13.9706 0 9ZM11.9173 10.9891C11.9173 10.8698 11.8679 10.7558 11.7809 10.6741L10.1159 9.00013L11.7809 7.32613C11.8679 7.24447 11.9173 7.13046 11.9173 7.01113C11.9173 6.8918 11.8679 6.77779 11.7809 6.69613L11.3039 6.21913C11.2222 6.13212 11.1082 6.08276 10.9889 6.08276C10.8696 6.08276 10.7555 6.13212 10.6739 6.21913L8.99989 7.88413L7.32589 6.21913C7.24423 6.13212 7.13021 6.08276 7.01089 6.08276C6.89156 6.08276 6.77755 6.13212 6.69589 6.21913L6.21889 6.69613C6.13188 6.77779 6.08252 6.8918 6.08252 7.01113C6.08252 7.13046 6.13188 7.24447 6.21889 7.32613L7.88389 9.00013L6.21889 10.6741C6.13188 10.7558 6.08252 10.8698 6.08252 10.9891C6.08252 11.1085 6.13188 11.2225 6.21889 11.3041L6.69589 11.7811C6.77755 11.8681 6.89156 11.9175 7.01089 11.9175C7.13021 11.9175 7.24423 11.8681 7.32589 11.7811L8.99989 10.1161L10.6739 11.7811C10.7555 11.8681 10.8696 11.9175 10.9889 11.9175C11.1082 11.9175 11.2222 11.8681 11.3039 11.7811L11.7809 11.3041C11.8679 11.2225 11.9173 11.1085 11.9173 10.9891Z" fill="#D8D8D8"/>
</svg>
