<svg width="5" height="8" viewBox="0 0 5 8" fill="none" xmlns="http://www.w3.org/2000/svg">
<path d="M0.0591507 0.768491C0.0212939 0.730943 0 0.679832 0 0.626512C0 0.573193 0.0212939 0.522081 0.0591507 0.484534L0.483086 0.0605983C0.519374 0.0219332 0.570039 0 0.623065 0C0.676091 0 0.726756 0.0219332 0.763044 0.0605983L4.43849 3.73604C4.49475 3.79224 4.5264 3.86848 4.52647 3.94801V4.05199C4.5264 4.13152 4.49475 4.20776 4.43849 4.26396L0.763044 7.9394C0.726756 7.97807 0.676091 8 0.623065 8C0.570039 8 0.519374 7.97807 0.483086 7.9394L0.0591507 7.51547C0.0212939 7.47792 0 7.42681 0 7.37349C0 7.32017 0.0212939 7.26906 0.0591507 7.23151L3.29066 4L0.0591507 0.768491Z" fill="black"/>
</svg>
