<svg width="14" height="14" viewBox="0 0 14 14" fill="none" xmlns="http://www.w3.org/2000/svg">
<g clip-path="url(#clip0_552_0)">
<path d="M12.97 2.3333C12.97 3.38037 12.1213 4.2292 11.0742 4.2292C10.0271 4.2292 9.17841 3.38037 9.17841 2.3333C9.17841 1.28633 10.0271 0.4375 11.0742 0.4375C12.1213 0.4375 12.97 1.28633 12.97 2.3333Z" fill="black"/>
<path d="M11.0742 4.6667C9.78734 4.6667 8.74091 3.62016 8.74091 2.3333C8.74091 1.04654 9.78734 0 11.0742 0C12.3611 0 13.4075 1.04654 13.4075 2.3333C13.4075 3.62016 12.3611 4.6667 11.0742 4.6667ZM11.0742 0.875C10.2698 0.875 9.61591 1.52954 9.61591 2.3333C9.61591 3.13716 10.2698 3.7917 11.0742 3.7917C11.8786 3.7917 12.5325 3.13716 12.5325 2.3333C12.5325 1.52954 11.8786 0.875 11.0742 0.875Z" fill="black"/>
<path d="M12.97 11.6667C12.97 12.7136 12.1213 13.5625 11.0742 13.5625C10.0271 13.5625 9.17841 12.7136 9.17841 11.6667C9.17841 10.6196 10.0271 9.77075 11.0742 9.77075C12.1213 9.77075 12.97 10.6196 12.97 11.6667Z" fill="black"/>
<path d="M11.0742 14C9.78734 14 8.74091 12.9534 8.74091 11.6667C8.74091 10.3798 9.78734 9.33325 11.0742 9.33325C12.3611 9.33325 13.4075 10.3798 13.4075 11.6667C13.4075 12.9534 12.3611 14 11.0742 14ZM11.0742 10.2083C10.2698 10.2083 9.61591 10.8628 9.61591 11.6667C9.61591 12.4704 10.2698 13.125 11.0742 13.125C11.8786 13.125 12.5325 12.4704 12.5325 11.6667C12.5325 10.8628 11.8786 10.2083 11.0742 10.2083Z" fill="black"/>
<path d="M4.80342 7.00005C4.80342 8.04712 3.95459 8.89584 2.90752 8.89584C1.86055 8.89584 1.01172 8.04712 1.01172 7.00005C1.01172 5.95297 1.86055 5.10425 2.90752 5.10425C3.95459 5.10425 4.80342 5.95297 4.80342 7.00005Z" fill="black"/>
<path d="M2.90752 9.33334C1.62076 9.33334 0.574219 8.28691 0.574219 7.00005C0.574219 5.71318 1.62076 4.66675 2.90752 4.66675C4.19438 4.66675 5.24092 5.71318 5.24092 7.00005C5.24092 8.28691 4.19438 9.33334 2.90752 9.33334ZM2.90752 5.54175C2.10312 5.54175 1.44922 6.19618 1.44922 7.00005C1.44922 7.80391 2.10312 8.45834 2.90752 8.45834C3.71202 8.45834 4.36592 7.80391 4.36592 7.00005C4.36592 6.19618 3.71202 5.54175 2.90752 5.54175Z" fill="black"/>
<path d="M4.28478 6.72004C4.08173 6.72004 3.88456 6.6144 3.77721 6.42545C3.61796 6.14603 3.71601 5.7896 3.99543 5.62971L9.4081 2.54392C9.68752 2.38349 10.044 2.48154 10.2039 2.76203C10.3631 3.04145 10.2651 3.39788 9.98564 3.55778L4.57285 6.64356C4.48185 6.69547 4.38273 6.72004 4.28478 6.72004Z" fill="black"/>
<path d="M9.69691 11.5327C9.59886 11.5327 9.49974 11.5081 9.40873 11.4562L3.99596 8.37041C3.71654 8.21115 3.61859 7.85472 3.77785 7.57466C3.93647 7.29471 4.29343 7.19612 4.57349 7.35655L9.98626 10.4423C10.2657 10.6016 10.3636 10.958 10.2044 11.2381C10.0965 11.427 9.89932 11.5327 9.69691 11.5327Z" fill="black"/>
</g>
<defs>
<clipPath id="clip0_552_0">
<rect width="14" height="14" fill="white"/>
</clipPath>
</defs>
</svg>
