<svg width="130" height="18" viewBox="0 0 130 18" fill="none" xmlns="http://www.w3.org/2000/svg">
<g clip-path="url(#clip0_993_0)">
<path d="M17.085 6.74504L17.0851 6.74506C17.2664 6.76146 17.4205 6.88398 17.4773 7.05839C17.5344 7.23412 17.4816 7.42451 17.3441 7.54519L13.4164 10.9892L13.1925 11.1855L13.2585 11.4759L14.4165 16.5761C14.4573 16.757 14.3872 16.9416 14.2392 17.0485L14.2388 17.0488C14.0903 17.1564 13.8933 17.165 13.7363 17.0711L9.25665 14.3921L9.00005 14.2387L8.74343 14.3921L4.26286 17.0712L4.26272 17.0712C4.19024 17.1146 4.10961 17.136 4.0289 17.136C3.93458 17.136 3.84149 17.1071 3.76181 17.0492L3.76082 17.0485C3.61289 16.9416 3.54275 16.7571 3.58354 16.5763C3.58356 16.5762 3.58357 16.5762 3.58358 16.5761L4.74158 11.4759L4.8075 11.1855L4.58364 10.9892L0.655856 7.54511C0.655844 7.5451 0.655833 7.54509 0.655821 7.54508C0.518482 7.42461 0.465875 7.23389 0.522437 7.05923C0.579917 6.88453 0.734077 6.76192 0.915387 6.74502C0.915529 6.745 0.915672 6.74499 0.915815 6.74498L6.11196 6.27331L6.4093 6.24632L6.52658 5.97176L8.58009 1.16406L8.58019 1.16382C8.65224 0.994891 8.81636 0.886475 9.00002 0.886475C9.18324 0.886475 9.34781 0.994537 9.42094 1.16443C9.421 1.16458 9.42107 1.16473 9.42113 1.16488L11.4743 5.97176L11.5916 6.24632L11.8889 6.27331L17.085 6.74504Z" stroke="black" fill="black"/>
</g>
<g clip-path="url(#clip1_993_0)">
<path d="M73.085 6.74504L73.0851 6.74506C73.2664 6.76146 73.4205 6.88398 73.4773 7.05839C73.5344 7.23412 73.4816 7.42451 73.3441 7.54519L69.4164 10.9892L69.1925 11.1855L69.2585 11.4759L70.4165 16.5761C70.4573 16.757 70.3872 16.9416 70.2392 17.0485L70.2388 17.0488C70.0903 17.1564 69.8933 17.165 69.7363 17.0711L65.2567 14.3921L65 14.2387L64.7434 14.3921L60.2629 17.0712L60.2627 17.0712C60.1902 17.1146 60.1096 17.136 60.0289 17.136C59.9346 17.136 59.8415 17.1071 59.7618 17.0492L59.7608 17.0485C59.6129 16.9416 59.5428 16.7571 59.5835 16.5763C59.5836 16.5762 59.5836 16.5762 59.5836 16.5761L60.7416 11.4759L60.8075 11.1855L60.5836 10.9892L56.6559 7.54511C56.6558 7.5451 56.6558 7.54509 56.6558 7.54508C56.5185 7.42461 56.4659 7.23389 56.5224 7.05923C56.5799 6.88453 56.7341 6.76192 56.9154 6.74502C56.9155 6.745 56.9157 6.74499 56.9158 6.74498L62.112 6.27331L62.4093 6.24632L62.5266 5.97176L64.5801 1.16406L64.5802 1.16382C64.6522 0.994891 64.8164 0.886475 65 0.886475C65.1832 0.886475 65.3478 0.994537 65.4209 1.16443C65.421 1.16458 65.4211 1.16473 65.4211 1.16488L67.4743 5.97176L67.5916 6.24632L67.8889 6.27331L73.085 6.74504Z" stroke="black" fill="black"/>
</g>
<g clip-path="url(#clip2_993_0)">
<path d="M45.085 6.74504L45.0851 6.74506C45.2664 6.76146 45.4205 6.88398 45.4773 7.05839C45.5344 7.23412 45.4816 7.42451 45.3441 7.54519L41.4164 10.9892L41.1925 11.1855L41.2585 11.4759L42.4165 16.5761C42.4573 16.757 42.3872 16.9416 42.2392 17.0485L42.2388 17.0488C42.0903 17.1564 41.8933 17.165 41.7363 17.0711L37.2567 14.3921L37 14.2387L36.7434 14.3921L32.2629 17.0712L32.2627 17.0712C32.1902 17.1146 32.1096 17.136 32.0289 17.136C31.9346 17.136 31.8415 17.1071 31.7618 17.0492L31.7608 17.0485C31.6129 16.9416 31.5428 16.7571 31.5835 16.5763C31.5836 16.5762 31.5836 16.5762 31.5836 16.5761L32.7416 11.4759L32.8075 11.1855L32.5836 10.9892L28.6559 7.54511C28.6558 7.5451 28.6558 7.54509 28.6558 7.54508C28.5185 7.42461 28.4659 7.23389 28.5224 7.05923C28.5799 6.88453 28.7341 6.76192 28.9154 6.74502C28.9155 6.745 28.9157 6.74499 28.9158 6.74498L34.112 6.27331L34.4093 6.24632L34.5266 5.97176L36.5801 1.16406L36.5802 1.16382C36.6522 0.994891 36.8164 0.886475 37 0.886475C37.1832 0.886475 37.3478 0.994537 37.4209 1.16443C37.421 1.16458 37.4211 1.16473 37.4211 1.16488L39.4743 5.97176L39.5916 6.24632L39.8889 6.27331L45.085 6.74504Z" stroke="black" fill="black"/>
</g>
<g clip-path="url(#clip3_993_0)">
<path d="M101.085 6.74504L101.085 6.74506C101.266 6.76146 101.42 6.88398 101.477 7.05839C101.534 7.23412 101.482 7.42451 101.344 7.54519L97.4164 10.9892L97.1925 11.1855L97.2585 11.4759L98.4165 16.5761C98.4573 16.757 98.3872 16.9416 98.2392 17.0485L98.2388 17.0488C98.0903 17.1564 97.8933 17.165 97.7363 17.0711L93.2567 14.3921L93 14.2387L92.7434 14.3921L88.2629 17.0712L88.2627 17.0712C88.1902 17.1146 88.1096 17.136 88.0289 17.136C87.9346 17.136 87.8415 17.1071 87.7618 17.0492L87.7608 17.0485C87.6129 16.9416 87.5428 16.7571 87.5835 16.5763C87.5836 16.5762 87.5836 16.5762 87.5836 16.5761L88.7416 11.4759L88.8075 11.1855L88.5836 10.9892L84.6559 7.54511C84.6558 7.5451 84.6558 7.54509 84.6558 7.54508C84.5185 7.42461 84.4659 7.23389 84.5224 7.05923C84.5799 6.88453 84.7341 6.76192 84.9154 6.74502C84.9155 6.745 84.9157 6.74499 84.9158 6.74498L90.112 6.27331L90.4093 6.24632L90.5266 5.97176L92.5801 1.16406L92.5802 1.16382C92.6522 0.994891 92.8164 0.886475 93 0.886475C93.1832 0.886475 93.3478 0.994537 93.4209 1.16443C93.421 1.16458 93.4211 1.16473 93.4211 1.16488L95.4743 5.97176L95.5916 6.24632L95.8889 6.27331L101.085 6.74504Z" stroke="black"/>
</g>
<g clip-path="url(#clip4_993_0)">
<path d="M129.085 6.74504L129.085 6.74506C129.266 6.76146 129.42 6.88398 129.477 7.05839C129.534 7.23412 129.482 7.42451 129.344 7.54519L125.416 10.9892L125.193 11.1855L125.258 11.4759L126.416 16.5761C126.457 16.757 126.387 16.9416 126.239 17.0485L126.239 17.0488C126.09 17.1564 125.893 17.165 125.736 17.0711L121.257 14.3921L121 14.2387L120.743 14.3921L116.263 17.0712L116.263 17.0712C116.19 17.1146 116.11 17.136 116.029 17.136C115.935 17.136 115.841 17.1071 115.762 17.0492L115.761 17.0485C115.613 16.9416 115.543 16.7571 115.584 16.5763C115.584 16.5762 115.584 16.5762 115.584 16.5761L116.742 11.4759L116.808 11.1855L116.584 10.9892L112.656 7.54511C112.656 7.5451 112.656 7.54509 112.656 7.54508C112.518 7.42461 112.466 7.23389 112.522 7.05923C112.58 6.88453 112.734 6.76192 112.915 6.74502C112.916 6.745 112.916 6.74499 112.916 6.74498L118.112 6.27331L118.409 6.24632L118.527 5.97176L120.58 1.16406L120.58 1.16382C120.652 0.994891 120.816 0.886475 121 0.886475C121.183 0.886475 121.348 0.994537 121.421 1.16443C121.421 1.16458 121.421 1.16473 121.421 1.16488L123.474 5.97176L123.592 6.24632L123.889 6.27331L129.085 6.74504Z" stroke="black"/>
</g>
<defs>
<clipPath id="clip0_993_0">
<rect width="18" height="18" fill="white"/>
</clipPath>
<clipPath id="clip1_993_0">
<rect width="18" height="18" fill="white" transform="translate(56)"/>
</clipPath>
<clipPath id="clip2_993_0">
<rect width="18" height="18" fill="white" transform="translate(28)"/>
</clipPath>
<clipPath id="clip3_993_0">
<rect width="18" height="18" fill="white" transform="translate(84)"/>
</clipPath>
<clipPath id="clip4_993_0">
<rect width="18" height="18" fill="white" transform="translate(112)"/>
</clipPath>
</defs>
</svg>
